<?xml version="1.0" encoding="UTF-8" standalone="no"?>
<svg width="32px" height="22px" viewBox="0 0 32 22" version="1.1" xmlns="http://www.w3.org/2000/svg" xmlns:xlink="http://www.w3.org/1999/xlink">
    <!-- Generator: Sketch 42 (36781) - http://www.bohemiancoding.com/sketch -->
    <title>chip-gt</title>
    <desc>Created with Sketch.</desc>
    <defs>
        <rect id="path-1" x="2" y="2" width="14" height="18"></rect>
        <mask id="mask-2" maskContentUnits="userSpaceOnUse" maskUnits="objectBoundingBox" x="0" y="0" width="14" height="18" fill="white">
            <use xlink:href="#path-1"></use>
        </mask>
        <rect id="path-3" x="14" y="2" width="16" height="18"></rect>
        <mask id="mask-4" maskContentUnits="userSpaceOnUse" maskUnits="objectBoundingBox" x="0" y="0" width="16" height="18" fill="white">
            <use xlink:href="#path-3"></use>
        </mask>
    </defs>
    <g id="Design" stroke="none" stroke-width="1" fill="none" fill-rule="evenodd">
        <g id="chip-gt">
            <use id="Rectangle-7" stroke="#FFFFFF" mask="url(#mask-2)" stroke-width="4" fill="#FFFFFF" xlink:href="#path-1"></use>
            <use id="Rectangle-7-Copy" stroke="#FFFFFF" mask="url(#mask-4)" stroke-width="4" xlink:href="#path-3"></use>
            <path d="M8,14 L12,14 L12,16 L6,16 L6,8 L8,8 L8,14 Z M12,14 L12,12 L10,12 L10,10 L14,10 L14,14 L12,14 Z M8,6 L14,6 L14,8 L8,8 L8,6 Z" id="G" fill="#000000"></path>
            <polygon id="T" fill="#FFFFFF" points="22 16 22 8 18 8 18 6 26 6 26 8 24 8 24 16"></polygon>
            <rect id="Rectangle-8-Copy-2" fill="#FFFFFF" x="0" y="14" width="2" height="2"></rect>
            <rect id="Rectangle-8-Copy-15" fill="#FFFFFF" x="0" y="8" width="2" height="2"></rect>
            <rect id="Rectangle-8-Copy-3" fill="#FFFFFF" x="6" y="20" width="2" height="2"></rect>
            <rect id="Rectangle-8-Copy-4" fill="#FFFFFF" x="18" y="20" width="2" height="2"></rect>
            <rect id="Rectangle-8-Copy-5" fill="#FFFFFF" x="30" y="10" width="2" height="2"></rect>
            <rect id="Rectangle-8-Copy-8" fill="#000000" x="28" y="10" width="2" height="2"></rect>
            <rect id="Rectangle-8-Copy-10" fill="#000000" x="18" y="18" width="2" height="2"></rect>
            <rect id="Rectangle-8-Copy-11" fill="#000000" x="6" y="18" width="2" height="2"></rect>
            <rect id="Rectangle-8-Copy-12" fill="#000000" x="2" y="14" width="2" height="2"></rect>
            <rect id="Rectangle-8-Copy-16" fill="#000000" x="2" y="8" width="2" height="2"></rect>
            <rect id="Rectangle-8-Copy-13" fill="#000000" x="6" y="2" width="2" height="2"></rect>
            <rect id="Rectangle-8-Copy-14" fill="#000000" x="10" y="2" width="2" height="2"></rect>
            <rect id="Rectangle-8-Copy-6" fill="#FFFFFF" x="30" y="16" width="2" height="2"></rect>
            <rect id="Rectangle-8-Copy-9" fill="#000000" x="28" y="16" width="2" height="2"></rect>
            <rect id="Rectangle-8-Copy-7" fill="#FFFFFF" x="10" y="0" width="2" height="2"></rect>
            <rect id="Rectangle-8-Copy" fill="#FFFFFF" x="6" y="0" width="2" height="2"></rect>
        </g>
    </g>
</svg>