<?xml version="1.0" encoding="UTF-8" standalone="no"?>
<svg width="160px" height="32px" viewBox="0 0 160 32" version="1.1" xmlns="http://www.w3.org/2000/svg" xmlns:xlink="http://www.w3.org/1999/xlink">
    <!-- Generator: Sketch 42 (36781) - http://www.bohemiancoding.com/sketch -->
    <title>logo-zd</title>
    <desc>Created with Sketch.</desc>
    <defs></defs>
    <g id="Design" stroke="none" stroke-width="1" fill="none" fill-rule="evenodd">
        <g id="logo-zd" fill-rule="nonzero" fill="#FFFFFF">
            <g id="zendesk-relationshapes-logo">
                <g id="Asset-1">
                    <g id="Layer_2">
                        <g id="Layer_1-2">
                            <path d="M107.136634,26.784 C109.252515,26.8347344 111.300495,26.0280928 112.823762,24.544 L115.643564,27.632 C113.430544,29.9374864 110.344213,31.1727115 107.168317,31.024 C100.277228,31.024 95.8257426,26.384 95.8257426,20.112 C95.7608269,17.2122878 96.8672734,14.4107926 98.8904126,12.3523306 C100.913552,10.2938685 103.679093,9.1557738 106.550495,9.2 C113.394059,9.2 117.275248,14.48 116.926733,21.808 L100.784158,21.808 C101.249706,24.9118282 104.044353,27.1009219 107.136634,26.784 Z M112.063366,18.32 C111.90999,15.4349938 109.470332,13.221643 106.613861,13.376 C103.682727,13.202208 101.122974,15.36017 100.768317,18.304 L112.063366,18.32 Z" id="Shape"></path>
                            <polygon id="Shape" points="0 26.56 12.4514851 13.76 0.285148515 13.76 0.285148515 9.712 18.2178218 9.712 18.2178218 13.808 5.76633663 26.608 18.439604 26.608 18.439604 30.64 0 30.64"></polygon>
                            <path d="M33.2673267,26.784 C35.3832081,26.8347344 37.4311878,26.0280928 38.9544554,24.544 L41.7742574,27.632 C39.5612375,29.9374864 36.4749056,31.1727115 33.2990099,31.024 C26.4079208,31.024 21.9564356,26.384 21.9564356,20.112 C21.89152,17.2122878 22.9979664,14.4107926 25.0211057,12.3523306 C27.044245,10.2938685 29.809786,9.1557738 32.6811881,9.2 C39.5247525,9.2 43.4059406,14.48 43.0574257,21.808 L26.9306931,21.808 C27.3960722,24.9050379 30.1808531,27.0918566 33.2673267,26.784 L33.2673267,26.784 Z M38.1940594,18.32 C38.0322916,15.4413638 35.5951736,13.2374723 32.7445545,13.392 C29.8307064,13.2349341 27.2923348,15.3795469 26.9306931,18.304 L38.1940594,18.32 Z" id="Shape"></path>
                            <path d="M69.9881188,20.112 C69.8668485,17.2586767 70.907326,14.4795859 72.8675106,12.4212124 C74.8276953,10.362839 77.5367047,9.20462516 80.3643564,9.216 C83.0179114,9.19616599 85.5428933,10.3686863 87.2554455,12.416 L87.2554455,0 L91.6594059,0 L91.6594059,30.592 L87.2554455,30.592 L87.2554455,27.712 C85.5673818,29.8228435 83.019141,31.0419756 80.3326733,31.024 C77.5161455,30.9998357 74.8287911,29.8272209 72.8808574,27.7724342 C70.9329237,25.7176476 69.889713,22.9550589 69.9881188,20.112 L69.9881188,20.112 Z M87.4930693,20.112 C87.4930693,16.4536658 84.5567665,13.488 80.9346535,13.488 C77.3125404,13.488 74.3762376,16.4536658 74.3762376,20.112 C74.3762376,23.7703342 77.3125404,26.736 80.9346535,26.736 C84.5567665,26.736 87.4930693,23.7703342 87.4930693,20.112 Z" id="Shape"></path>
                            <path d="M119.683168,26.16 L123.659406,24 C124.729369,25.9348583 126.772776,27.1115558 128.966337,27.056 C131.453465,27.056 132.736634,25.76 132.736634,24.288 C132.736634,22.816 130.328713,22.24 127.714851,21.696 C124.182178,20.944 120.538614,19.776 120.538614,15.456 C120.538614,12.144 123.706931,9.056 128.554455,9.056 C131.846958,8.85584122 135.006816,10.3940384 136.90297,13.12 L133.211881,15.296 C132.177225,13.7438201 130.421652,12.8421267 128.570297,12.912 C126.209901,12.912 125.005941,14.08 125.005941,15.424 C125.005941,16.768 126.906931,17.344 129.90099,18.016 C133.306931,18.768 137.156436,19.904 137.156436,24.256 C137.156436,27.152 134.669307,31.04 128.776238,31.008 C125.076511,31.282149 121.546244,29.3999757 119.683168,26.16 L119.683168,26.16 Z" id="Shape"></path>
                            <polygon id="Shape" points="148.609901 21.296 145.124752 25.152 145.124752 30.608 140.720792 30.608 140.720792 0 145.124752 0 145.124752 20.032 154.455446 9.6 159.809901 9.6 151.714851 18.576 160 30.592 155.041584 30.592"></polygon>
                            <path d="M56.9029703,9.216 C51.6752475,9.216 47.3029703,12.656 47.3029703,18.352 L47.3029703,30.592 L51.7861386,30.592 L51.7861386,18.912 C51.6268505,17.447169 52.1207126,15.9866484 53.1338867,14.9262439 C54.1470607,13.8658394 55.5746243,13.3153646 57.029703,13.424 C60.3564356,13.424 62.0039604,15.488 62.0039604,18.912 L62.0039604,30.592 L66.5346535,30.592 L66.5346535,18.352 C66.5346535,12.656 62.1306931,9.216 56.9029703,9.216 Z" id="Shape"></path>
                        </g>
                    </g>
                </g>
            </g>
        </g>
    </g>
</svg>