<?xml version="1.0" encoding="UTF-8" standalone="no"?>
<svg width="143px" height="48px" viewBox="0 0 143 48" version="1.1" xmlns="http://www.w3.org/2000/svg" xmlns:xlink="http://www.w3.org/1999/xlink">
    <!-- Generator: Sketch 42 (36781) - http://www.bohemiancoding.com/sketch -->
    <title>logo-medialab</title>
    <desc>Created with Sketch.</desc>
    <defs></defs>
    <g id="Design" stroke="none" stroke-width="1" fill="none" fill-rule="evenodd">
        <g id="logo-medialab" fill="#FFFFFF">
            <g id="Page-1" transform="translate(1.000000, 1.000000)">
                <path d="M40.9020482,0 L25.9204093,34.7591641 L10.9183164,0.341735886 L10.7687104,0 L9.16161466,0 L0,46.0064188 L5.95385151,46.0064188 L11.5488824,16.2345566 L25.0192669,47.483871 L26.6555826,47.483871 L39.9383752,16.2579797 L45.4153576,46.0064188 L51.6129032,46.0064188 L42.509144,0 L40.9020482,0 Z M10.0680167,1.23000895 L25.9268377,37.6125687 L41.6015732,1.23721604 L50.2308009,44.8460783 L46.3498107,44.8460783 L40.7436763,14.3949485 L40.5362148,13.9234851 L39.700525,13.9234851 L25.9157341,46.3241311 L25.7532714,46.3241311 L11.9351698,14.2664222 L11.6675153,13.9234851 L10.8335787,13.9234851 L5.02173597,44.8460783 L1.38443995,44.8460783 L10.0680167,1.23000895 Z" id="Fill-1"></path>
                <path d="M53.2896081,0 L38.3101372,34.7591641 L23.3055368,0.341735886 L23.1559291,0 L21.5511528,0 L12.3870968,46.0064188 L18.3398469,46.0064188 L23.9372787,16.2399619 L37.4084002,47.483871 L39.0429812,47.483871 L52.327093,16.2531749 L57.8053062,46.0064188 L64,46.0064188 L54.9902269,0.463655718 L54.8996441,0 L53.2896081,0 Z M53.9908942,1.23241131 L62.617882,44.8460783 L58.7409387,44.8460783 L53.1341564,14.3949485 L52.9237706,13.9234851 L52.0880713,13.9234851 L38.3031243,46.3241311 L38.1441662,46.3241311 L24.3224017,14.2664222 L24.0582506,13.9234851 L23.2237201,13.9234851 L17.4088896,44.8460783 L13.7715524,44.8460783 L22.4558119,1.23241131 L38.3165657,37.6125687 L53.9908942,1.23241131 Z" id="Fill-2"></path>
                <polygon id="Fill-3" points="78.1769163 20.9916992 75.4922843 25.2275071 72.7943948 20.9916992 71 20.9916992 71 32.0354138 72.7943948 32.0354138 72.7943948 24.190512 75.4922843 28.6552994 78.1769163 24.190512 78.1769163 32.0354138 79.9679967 32.0354138 79.9679967 20.9916992"></polygon>
                <polygon id="Fill-4" points="88.9305536 20.9916992 88.9305536 22.6899119 84.1248514 22.6899119 84.1248514 25.2431906 87.964733 25.2431906 87.964733 26.9414032 84.1248514 26.9414032 84.1248514 30.3372012 88.9305536 30.3372012 88.9305536 32.0354138 82.2045561 32.0354138 82.2045561 20.9916992"></polygon>
                <g id="Group-22" transform="translate(71.000000, 20.000000)">
                    <path d="M25.0483207,4.49164093 C25.0483207,2.74167008 23.305623,2.74167008 23.305623,2.74167008 L21.5635689,2.74167008 L21.5635689,10.6220339 L23.305623,10.6220339 C25.0483207,10.6220339 25.0483207,8.87594177 25.0483207,8.87594177 L25.0483207,4.49164093 Z M26.7903748,4.49164093 L26.7903748,8.87594177 C26.7903748,8.87594177 26.7903748,12.3720047 23.305623,12.3720047 L19.8234454,12.3720047 L19.8234454,0.991699219 L23.305623,0.991699219 C23.305623,0.991699219 26.7903748,0.991699219 26.7903748,4.49164093 Z" id="Fill-5"></path>
                    <polygon id="Fill-7" points="28.4423347 12.3720047 30.1843888 12.3720047 30.1843888 0.991699219 28.4423347 0.991699219"></polygon>
                    <path d="M36.5958819,8.87594177 L35.1749527,2.74167008 L33.7424397,8.87594177 L36.5958819,8.87594177 Z M39.3225473,12.3720047 L37.5290103,12.3720047 L37.061159,10.6220339 L33.283598,10.6220339 L32.8183209,12.3720047 L31.0280015,12.3720047 L34.044902,0.991699219 L36.2972808,0.991699219 L39.3225473,12.3720047 Z" id="Fill-9"></path>
                    <polygon id="Fill-10" points="45.6801133 0.991699219 47.4260287 0.991699219 47.4260287 10.6220339 51.0877531 10.6220339 51.0877531 12.3720047 45.6801133 12.3720047"></polygon>
                    <path d="M57.2812162,8.87594177 L55.8577128,2.74167008 L54.4309917,8.87594177 L57.2812162,8.87594177 Z M60.0078817,12.3720047 L58.2143446,12.3720047 L57.7464933,10.6220339 L53.9657146,10.6220339 L53.499794,12.3720047 L51.7133358,12.3720047 L54.7302364,0.991699219 L56.9826152,0.991699219 L60.0078817,12.3720047 Z" id="Fill-11"></path>
                    <path d="M67.284096,9.04143587 C67.284096,8.17323829 66.5877892,7.47376711 65.7241628,7.47376711 L65.7241628,7.45437327 C65.6430771,7.47376711 65.561348,7.47376711 65.457095,7.47376711 L63.7993442,7.47376711 L63.7993442,10.6220339 L65.7241628,10.6220339 C66.5877892,10.6220339 67.284096,9.92320915 67.284096,9.04143587 L67.284096,9.04143587 Z M63.7993442,2.74167008 L63.7993442,5.72379626 L65.457095,5.72379626 C66.2750303,5.72379626 66.9372296,5.06117338 66.9372296,4.24081393 C66.9372296,3.40817172 66.2750303,2.74167008 65.457095,2.74167008 L63.7993442,2.74167008 Z M69.0267936,9.04143587 C69.0267936,10.8890224 67.5492331,12.3720047 65.7241628,12.3720047 L62.056003,12.3720047 L62.056003,0.991699219 L65.457095,0.991699219 C67.2364742,0.991699219 68.6792838,2.44235847 68.6792838,4.24081393 C68.6792838,5.09026414 68.3465752,5.87377529 67.799569,6.45946926 C68.5602295,7.07037523 69.0267936,8.00709772 69.0267936,9.04143587 L69.0267936,9.04143587 Z" id="Fill-12"></path>
                    <polygon id="Fill-13" points="7.77112017 15.643811 7.77112017 25.9014393 6.21676693 25.9014393 6.21676693 18.6147285 3.89363549 22.7627401 1.5575834 18.6147285 1.5575834 25.9014393 0 25.9014393 0 15.643811 1.5575834 15.643811 3.89363549 19.5775076 6.21676693 15.643811"></polygon>
                    <polygon id="Fill-14" points="15.792594 15.643811 15.792594 17.2193869 11.8989585 17.2193869 11.8989585 19.5938925 15.008311 19.5938925 15.008311 21.1701238 11.8989585 21.1701238 11.8989585 24.321931 15.792594 24.321931 15.792594 25.9014393 10.3426672 25.9014393 10.3426672 15.643811"></polygon>
                    <polygon id="Fill-15" points="17.2377786 15.643811 18.7921318 15.643811 18.7921318 24.321931 22.0636384 24.321931 22.0636384 25.9014393 17.2377786 25.9014393"></polygon>
                    <path d="M27.9359989,22.897752 C27.9359989,22.113241 27.3119319,21.4866809 26.5450918,21.4866809 L26.5450918,21.4696406 C26.4701521,21.4866809 26.3945663,21.4866809 26.3054139,21.4866809 L24.8285845,21.4866809 L24.8285845,24.321931 L26.5450918,24.321931 C27.3119319,24.321931 27.9359989,23.6960263 27.9359989,22.897752 L27.9359989,22.897752 Z M24.8285845,17.2193869 L24.8285845,19.9071726 L26.3054139,19.9071726 C27.0322,19.9071726 27.6265496,19.3068284 27.6265496,18.5747492 C27.6265496,17.8197312 27.0322,17.2193869 26.3054139,17.2193869 L24.8285845,17.2193869 Z M29.4903522,22.897752 C29.4903522,24.5663944 28.1737387,25.9014393 26.5450918,25.9014393 L23.2710011,25.9014393 L23.2710011,15.643811 L26.3054139,15.643811 C27.8946529,15.643811 29.1809028,16.9493631 29.1809028,18.5747492 C29.1809028,19.3395983 28.8804979,20.0454615 28.3933897,20.5697796 C29.0775377,21.1235906 29.4903522,21.9677428 29.4903522,22.897752 L29.4903522,22.897752 Z" id="Fill-16"></path>
                    <path d="M35.6929993,18.7962736 C35.6929993,18.7962736 35.6929993,17.2200423 34.1386461,17.2200423 C32.5830008,17.2200423 32.5830008,18.7962736 32.5830008,18.7962736 L32.5830008,22.7496321 C32.5830008,22.7496321 32.5830008,24.3225864 34.1386461,24.3225864 C35.6929993,24.3225864 35.6929993,22.7496321 35.6929993,22.7496321 L35.6929993,18.7962736 Z M37.2473525,18.7962736 L37.2473525,22.7496321 C37.2473525,22.7496321 37.2473525,25.9020947 34.1386461,25.9020947 C31.0280015,25.9020947 31.0280015,22.7496321 31.0280015,22.7496321 L31.0280015,18.7962736 C31.0280015,18.7962736 31.0280015,15.643811 34.1386461,15.643811 C37.2473525,15.643811 37.2473525,18.7962736 37.2473525,18.7962736 L37.2473525,18.7962736 Z" id="Fill-17"></path>
                    <path d="M45.0024148,15.643811 L45.0024148,22.7365242 C45.0024148,22.7365242 45.0024148,25.8889868 41.8950004,25.8889868 C38.7850019,25.8889868 38.7850019,22.7365242 38.7850019,22.7365242 L38.7850019,15.643811 L40.338063,15.643811 L40.338063,22.7365242 C40.338063,22.7365242 40.338063,24.3094785 41.8950004,24.3094785 C43.4480616,24.3094785 43.4480616,22.7365242 43.4480616,22.7365242 L43.4480616,15.643811 L45.0024148,15.643811 Z" id="Fill-18"></path>
                    <path d="M48.9614746,20.3757819 L50.6023961,20.362674 C50.9118455,20.3299041 52.068889,20.1516359 52.068889,18.800206 C52.068889,17.2233193 50.5158278,17.2233193 50.5158278,17.2233193 L48.9614746,17.2233193 L48.9614746,20.3757819 Z M51.3860331,21.8038934 L53.61872,25.8889868 L51.8434238,25.8889868 L49.6837385,21.9552902 L48.9614746,21.9552902 L48.9614746,25.8889868 L47.4038912,25.8889868 L47.4038912,15.643811 L50.5158278,15.643811 C50.5158278,15.643811 53.61872,15.643811 53.61872,18.800206 C53.61872,20.8411142 52.3066288,21.5633624 51.3860331,21.8038934 L51.3860331,21.8038934 Z" id="Fill-19"></path>
                    <polygon id="Fill-20" points="61.3808886 15.643811 61.3808886 25.9014393 59.8233052 25.9014393 56.7126607 19.2347346 56.7126607 25.9014393 55.1608915 25.9014393 55.1608915 15.643811 56.7126607 15.643811 59.8233052 22.3111711 59.8233052 15.643811"></polygon>
                    <polygon id="Fill-21" points="68.3678187 15.643811 68.3678187 17.2193869 64.4709531 17.2193869 64.4709531 19.5938925 67.5803056 19.5938925 67.5803056 21.1701238 64.4709531 21.1701238 64.4709531 24.321931 68.3678187 24.321931 68.3678187 25.9014393 62.9178919 25.9014393 62.9178919 15.643811"></polygon>
                </g>
            </g>
        </g>
    </g>
</svg>